<svg xmlns="http://www.w3.org/2000/svg" fill="none" viewBox="0 0 25 24">
  <path fill="#fff" fill-rule="evenodd" d="M9.95 3.38c-2.766.218-5.118.408-5.225.422a1.048 1.048 0 0 0-.722.557l-.12.245.013 5.9.014 5.9.173.368c.107.204.775 1.155 1.51 2.12 1.457 1.931 1.564 2.026 2.112 2.094.16.014 1.376-.04 2.673-.122 1.31-.082 3.42-.218 4.677-.286 5.386-.34 5.105-.312 5.426-.584.387-.326.347.217.374-6.96.013-6.078 0-6.486-.094-6.663-.093-.217-.28-.353-2.74-2.107-1.643-1.183-1.763-1.237-2.498-1.25-.308-.014-2.82.163-5.573.367Z" clip-rule="evenodd"/>
  <path fill="#000" fill-rule="evenodd" d="M9.95 3.38c-2.766.218-5.118.408-5.225.422a1.048 1.048 0 0 0-.722.557l-.12.245.013 5.9.014 5.9.173.368c.107.204.775 1.155 1.51 2.12 1.457 1.931 1.564 2.026 2.112 2.094.16.014 1.376-.04 2.673-.122 1.31-.082 3.42-.218 4.677-.286 5.386-.34 5.105-.312 5.426-.584.387-.326.347.217.374-6.96.013-6.078 0-6.486-.094-6.663-.093-.217-.28-.353-2.74-2.107-1.643-1.183-1.763-1.237-2.498-1.25-.308-.014-2.82.163-5.573.367Zm6.214.775c.24.11 1.938 1.306 2.178 1.537.067.068.094.136.054.163-.067.068-10.584.707-10.892.652a1.174 1.174 0 0 1-.454-.176c-.481-.34-1.67-1.333-1.67-1.4 0-.191-.04-.191 4.637-.544.895-.055 2.379-.164 3.274-.245 1.938-.15 2.512-.15 2.873.013Zm3.341 3.073a.77.77 0 0 1 .174.38c.013.137.027 2.665.013 5.602-.013 5.03-.027 5.356-.12 5.492a.494.494 0 0 1-.254.218c-.227.095-11.239.734-11.466.666a.727.727 0 0 1-.32-.204l-.135-.136-.013-5.438c-.013-3.82 0-5.506.04-5.656a.67.67 0 0 1 .187-.299c.094-.068.749-.122 2.994-.258 1.577-.082 4.022-.231 5.412-.326 3.341-.204 3.328-.204 3.488-.041Z" clip-rule="evenodd"/>
  <path fill="#000" fill-rule="evenodd" d="M16.551 9.09c-.601.041-1.136.096-1.19.136a.581.581 0 0 0-.32.435c-.013.177.04.204.641.286l.254.027v2.406c0 1.428-.013 2.366-.053 2.339-.027-.027-.802-1.25-1.737-2.692-.936-1.468-1.71-2.665-1.724-2.665-.014-.013-.615.014-1.35.068-.895.055-1.39.123-1.483.177-.16.082-.348.38-.348.571 0 .122.214.19.655.19h.24v6.907l-.387.122c-.28.082-.388.136-.441.258-.08.19-.08.354.013.354.027 0 .655-.027 1.377-.082 1.416-.081 1.577-.122 1.724-.421a.554.554 0 0 0 .093-.218c0-.013-.2-.081-.427-.136-.24-.054-.481-.122-.535-.122-.093-.027-.093-.204-.093-2.624V11.81l1.683 2.679c1.764 2.814 1.978 3.14 2.259 3.276.334.177 1.19.055 1.617-.231l.134-.082.013-3.833.013-3.848.294-.054c.348-.068.508-.231.508-.517 0-.177-.013-.19-.174-.177-.093 0-.668.041-1.256.068Z" clip-rule="evenodd"/>
</svg>
