<svg xmlns="http://www.w3.org/2000/svg" fill="none" viewBox="0 0 25 24">
  <path fill="#4185F3" d="M15.927 14.671H9.342l-2.82 4.796c.34.168.724.276.974.276 2.59 0 7.877-.038 10.502-.038.27 0 .522-.09.749-.23l-2.82-4.804Z"/>
  <path fill="#1767D1" d="m6.522 19.467 2.82-4.795H3.628c-.003.333.119.638.31.986.53.967 1.43 2.514 1.958 3.322.13.2.647.497.626.487Z"/>
  <path fill="#E94235" d="m15.928 14.671 2.82 4.804c.365-.227.663-.585.857-.915a257.05 257.05 0 0 1 1.684-2.821c.237-.39.329-.74.323-1.068h-5.684Z"/>
  <path fill="#30A753" d="m9.342 14.672 3.29-5.567-2.94-4.772c-.318.204-.59.48-.713.69-1.284 2.192-3.869 6.682-5.168 8.901a1.343 1.343 0 0 0-.184.748h5.715Z"/>
  <path fill="#F9BC00" d="m15.927 14.672-3.295-5.567 2.859-4.766c.318.203.667.474.79.685 1.284 2.19 3.869 6.68 5.169 8.9.134.228.175.487.162.748h-5.685Z"/>
  <path fill="#0F8038" d="m9.692 4.334 2.94 4.77 2.86-4.765c-.296-.168-.714-.268-1.118-.28-1.127-.037-2.952-.052-3.935-.01-.242.01-.744.283-.747.285Z"/>
</svg>
