<svg xmlns="http://www.w3.org/2000/svg" fill="none" viewBox="0 0 24 24">
  <path fill="#4A5565" d="M19.903 8.586a1 1 0 0 0-.196-.293l-6-6a1 1 0 0 0-.293-.196c-.03-.014-.062-.022-.094-.033a1 1 0 0 0-.259-.051C13.04 2.011 13.021 2 13 2H6c-1.103 0-2 .897-2 2v16c0 1.103.897 2 2 2h12c1.103 0 2-.897 2-2V9c0-.021-.011-.04-.013-.062a1 1 0 0 0-.051-.259.839.839 0 0 0-.033-.093ZM16.586 8H14V5.414L16.586 8ZM6 20V4h6v5a1 1 0 0 0 1 1h5l.002 10H6Z"/>
  <path fill="#4A5565" d="M8 12h8v2H8v-2Zm0 4h8v2H8v-2Zm0-8h2v2H8V8Z"/>
</svg>
