<svg xmlns="http://www.w3.org/2000/svg" fill="none" viewBox="0 0 49 50">
  <path fill="#000" d="m47.502 26.392-9.896-5.932a.763.763 0 0 1-.369-.654V8.256c0-.802-.42-1.548-1.112-1.958L26.566.572a4.042 4.042 0 0 0-4.145 0l-9.558 5.73a2.292 2.292 0 0 0-1.112 1.958v11.558a.77.77 0 0 1-.37.655l-9.9 5.918A3.047 3.047 0 0 0 0 29.005v11.167c0 1.534.766 2.954 2.003 3.7l9.157 5.559c.974.59 2.192.59 3.166 0l9.817-5.91a.763.763 0 0 1 .78.006L35.05 49.67a2.29 2.29 0 0 0 2.376 0l9.554-5.798c1.237-.75 2.003-2.166 2.003-3.7V29.005c0-1.07-.563-2.06-1.481-2.613Zm-24.074 13.78c0 .82-.392 1.567-1.01 1.944l-7.704 4.674c-.632.382-1.39-.152-1.39-.982v-9.106c0-.82.393-1.567 1.011-1.945l7.704-4.673c.632-.382 1.389.152 1.389.982v9.107-.001Zm11.75-20.311c0 .82-.392 1.567-1.01 1.945l-7.703 4.673c-.633.383-1.39-.152-1.39-.982v-9.105c0-.82.393-1.567 1.011-1.945l7.704-4.675c.633-.382 1.39.153 1.39.982v9.107h-.002Zm11.747 20.31c0 .82-.392 1.568-1.01 1.946l-7.704 4.673c-.632.382-1.39-.152-1.39-.982v-9.106c0-.82.393-1.567 1.012-1.945l7.703-4.673c.632-.382 1.389.152 1.389.982v9.107-.002Z"/>
</svg>
